<?xml version="1.0" encoding="utf-8"?>
<!-- Generator: Adobe Illustrator 25.0.1, SVG Export Plug-In . SVG Version: 6.00 Build 0)  -->
<svg version="1.1" id="Layer_1" xmlns="http://www.w3.org/2000/svg" xmlns:xlink="http://www.w3.org/1999/xlink" x="0px" y="0px"
	 viewBox="0 0 700 792" style="enable-background:new 0 0 700 792;" xml:space="preserve">
<style type="text/css">
	.st0{fill:#0065FF;}
</style>
<g>
	<g>
		<circle class="st0" cx="402" cy="97.1" r="47.5"/>
	</g>
	<g>
		<circle class="st0" cx="503" cy="97.1" r="47.5"/>
	</g>
	<g>
		<circle class="st0" cx="604" cy="97.1" r="47.5"/>
	</g>
	<g>
		<circle class="st0" cx="96" cy="197.1" r="47.5"/>
	</g>
	<g>
		<circle class="st0" cx="198" cy="197.1" r="47.5"/>
	</g>
	<g>
		<circle class="st0" cx="300" cy="197.1" r="47.5"/>
	</g>
	<g>
		<circle class="st0" cx="402" cy="197.1" r="47.5"/>
	</g>
	<g>
		<circle class="st0" cx="503" cy="197.1" r="47.5"/>
	</g>
	<g>
		<circle class="st0" cx="604" cy="197.1" r="47.5"/>
	</g>
	<g>
		<circle class="st0" cx="96" cy="297.1" r="47.5"/>
	</g>
	<g>
		<circle class="st0" cx="198" cy="297.1" r="47.5"/>
	</g>
	<g>
		<circle class="st0" cx="300" cy="297.1" r="47.5"/>
	</g>
	<g>
		<circle class="st0" cx="402" cy="297.1" r="47.5"/>
	</g>
	<g>
		<circle class="st0" cx="503" cy="297.1" r="47.5"/>
	</g>
	<g>
		<circle class="st0" cx="604" cy="297.1" r="47.5"/>
	</g>
	<g>
		<circle class="st0" cx="96" cy="397.1" r="47.5"/>
	</g>
	<g>
		<circle class="st0" cx="198" cy="397.1" r="47.5"/>
	</g>
	<g>
		<circle class="st0" cx="300" cy="397.1" r="47.5"/>
	</g>
	<g>
		<circle class="st0" cx="402" cy="397.1" r="47.5"/>
	</g>
	<g>
		<circle class="st0" cx="503" cy="397.1" r="47.5"/>
	</g>
	<g>
		<circle class="st0" cx="604" cy="397.1" r="47.5"/>
	</g>
	<g>
		<circle class="st0" cx="96" cy="497.1" r="47.5"/>
	</g>
	<g>
		<circle class="st0" cx="198" cy="497.1" r="47.5"/>
	</g>
	<g>
		<circle class="st0" cx="300" cy="497.1" r="47.5"/>
	</g>
	<g>
		<circle class="st0" cx="402" cy="497.1" r="47.5"/>
	</g>
	<g>
		<path class="st0" d="M93.97,714.29c-13.82,0-24.83-3.15-33.02-9.45c-8.19-6.3-12.34-16-12.44-29.11h13.36
			c0.31,17.92,11.01,26.88,32.1,26.88c8.81,0,15.61-1.74,20.43-5.22c4.81-3.48,7.22-8.55,7.22-15.21c0-5.22-2-9.29-5.99-12.21
			c-3.99-2.92-10.86-5.45-20.58-7.6l-9.68-2.15c-10.55-2.35-18.72-5.91-24.5-10.68c-5.79-4.76-8.68-11.75-8.68-20.97
			c0-8.7,3.38-15.64,10.14-20.81c6.76-5.17,15.82-7.76,27.19-7.76c7.78,0,14.49,0.92,20.12,2.77c5.63,1.84,10.03,4.43,13.21,7.76
			c3.17,3.33,5.5,6.94,6.99,10.83c1.48,3.89,2.28,8.19,2.38,12.9H119c-0.61-7.58-3.1-13.23-7.45-16.97
			c-4.35-3.74-11.7-5.61-22.04-5.61c-7.78,0-13.72,1.51-17.82,4.53c-4.1,3.02-6.14,7.14-6.14,12.37c0,5.43,1.77,9.6,5.3,12.52
			c3.53,2.92,10.32,5.51,20.35,7.76l9.68,2.15c12.29,2.66,21.04,6.5,26.27,11.52c5.22,5.02,7.83,11.57,7.83,19.66
			c0,9.83-3.61,17.64-10.83,23.42C116.93,711.4,106.87,714.29,93.97,714.29z"/>
		<path class="st0" d="M177.57,713.68c-10.96,0-19.82-3.76-26.57-11.29c-6.76-7.53-10.14-17.59-10.14-30.18
			c0-12.7,3.35-22.78,10.06-30.26c6.71-7.47,15.59-11.21,26.65-11.21c9.42,0,17.15,2.59,23.19,7.76
			c6.04,5.17,9.68,12.16,10.91,20.97h-12.75c-1.03-5.73-3.51-10.11-7.45-13.13c-3.94-3.02-8.58-4.53-13.9-4.53
			c-7.07,0-12.8,2.59-17.2,7.76c-4.4,5.17-6.6,12.73-6.6,22.66c0,9.93,2.23,17.49,6.68,22.66c4.45,5.17,10.16,7.76,17.13,7.76
			c5.32,0,9.98-1.54,13.98-4.61c3.99-3.07,6.5-7.53,7.53-13.36h12.6c-1.33,9.01-5.1,16.1-11.29,21.27
			C194.19,711.09,186.58,713.68,177.57,713.68z"/>
		<path class="st0" d="M257.55,630.73c8.81,0,15.67,2.41,20.58,7.22c4.92,4.82,7.37,11.57,7.37,20.28v53.61h-12.29v-52.38
			c0-11.77-6.04-17.66-18.13-17.66c-5.74,0-10.8,2.15-15.21,6.45c-4.4,4.3-6.61,10.55-6.61,18.74v44.85H221V602.47h12.29v41.01
			C239.33,634.98,247.42,630.73,257.55,630.73z"/>
		<path class="st0" d="M365.69,672.21v4.3h-60.21c0.61,8.71,3.05,15.21,7.3,19.51c4.25,4.3,9.96,6.45,17.13,6.45
			c10.96,0,17.97-4.92,21.04-14.75h12.75c-2.05,7.78-5.97,14.05-11.75,18.82c-5.79,4.76-13.24,7.14-22.35,7.14
			c-10.96,0-19.84-3.74-26.65-11.21c-6.81-7.47-10.21-17.56-10.21-30.26c0-12.49,3.35-22.53,10.06-30.11
			c6.71-7.58,15.54-11.37,26.5-11.37c11.37,0,20.28,3.94,26.73,11.83C362.46,650.45,365.69,660.33,365.69,672.21z M329.29,641.95
			c-6.35,0-11.6,2-15.74,5.99c-4.15,3.99-6.73,9.83-7.76,17.51h46.7c-0.61-6.86-2.95-12.49-6.99-16.9
			C341.45,644.15,336.04,641.95,329.29,641.95z"/>
		<path class="st0" d="M435.78,602.47h12.29v109.37h-11.67v-12.29c-6.25,9.42-15.31,14.13-27.19,14.13
			c-11.16,0-20.1-3.76-26.8-11.29c-6.71-7.53-10.06-17.59-10.06-30.18c0-12.6,3.35-22.66,10.06-30.18
			c6.71-7.53,15.64-11.29,26.8-11.29c11.47,0,20.33,4.4,26.57,13.21V602.47z M392.16,694.78c4.61,5.22,10.8,7.83,18.59,7.83
			c7.78,0,13.98-2.69,18.59-8.06c4.61-5.38,6.91-12.83,6.91-22.35s-2.3-16.97-6.91-22.35s-10.81-8.06-18.59-8.06
			c-7.68,0-13.85,2.79-18.51,8.37c-4.66,5.58-6.99,13.13-6.99,22.66C385.24,682.24,387.55,689.56,392.16,694.78z"/>
		<path class="st0" d="M511.2,632.57h12.29v79.26h-11.67v-11.83c-5.94,9.12-14.23,13.67-24.88,13.67c-8.81,0-15.67-2.41-20.58-7.22
			c-4.92-4.81-7.37-11.57-7.37-20.28v-53.61h12.29v52.38c0,11.78,6.04,17.66,18.13,17.66c5.73,0,10.8-2.15,15.21-6.45
			c4.4-4.3,6.61-10.55,6.61-18.74V632.57z"/>
		<path class="st0" d="M537.62,711.84V602.47h12.29v109.37H537.62z"/>
		<path class="st0" d="M560.97,711.84V602.47h12.29v109.37H560.97z"/>
		<path class="st0" d="M638.14,632.57h13.36l-33.48,91.7c-2.46,6.76-5.74,11.47-9.83,14.13c-4.1,2.66-9.42,3.99-15.97,3.99
			c-2.25,0-4.71-0.15-7.37-0.46v-10.29h7.22c7.07,0,11.88-3.28,14.44-9.83l2.76-7.37l-29.8-81.87h13.52l11.21,33.02
			c2.66,7.68,6.45,19.1,11.37,34.25c3.28-10.45,7.07-21.91,11.37-34.41L638.14,632.57z"/>
	</g>
</g>
</svg>
