<?xml version="1.0" encoding="utf-8"?>
<!-- Generator: Adobe Illustrator 25.0.1, SVG Export Plug-In . SVG Version: 6.00 Build 0)  -->
<svg version="1.1" id="Layer_1" xmlns="http://www.w3.org/2000/svg" xmlns:xlink="http://www.w3.org/1999/xlink" x="0px" y="0px"
	 viewBox="0 0 700 615.1" style="enable-background:new 0 0 700 615.1;" xml:space="preserve">
<style type="text/css">
	.st0{fill:#ffffff;}
</style>
<g>
	<g>
		<circle class="st0" cx="402" cy="107.5" r="47.5"/>
	</g>
	<g>
		<circle class="st0" cx="503" cy="107.5" r="47.5"/>
	</g>
	<g>
		<circle class="st0" cx="604" cy="107.5" r="47.5"/>
	</g>
	<g>
		<circle class="st0" cx="96" cy="207.5" r="47.5"/>
	</g>
	<g>
		<circle class="st0" cx="198" cy="207.5" r="47.5"/>
	</g>
	<g>
		<circle class="st0" cx="300" cy="207.5" r="47.5"/>
	</g>
	<g>
		<circle class="st0" cx="402" cy="207.5" r="47.5"/>
	</g>
	<g>
		<circle class="st0" cx="503" cy="207.5" r="47.5"/>
	</g>
	<g>
		<circle class="st0" cx="604" cy="207.5" r="47.5"/>
	</g>
	<g>
		<circle class="st0" cx="96" cy="307.5" r="47.5"/>
	</g>
	<g>
		<circle class="st0" cx="198" cy="307.5" r="47.5"/>
	</g>
	<g>
		<circle class="st0" cx="300" cy="307.5" r="47.5"/>
	</g>
	<g>
		<circle class="st0" cx="402" cy="307.5" r="47.5"/>
	</g>
	<g>
		<circle class="st0" cx="503" cy="307.5" r="47.5"/>
	</g>
	<g>
		<circle class="st0" cx="604" cy="307.5" r="47.5"/>
	</g>
	<g>
		<circle class="st0" cx="96" cy="407.5" r="47.5"/>
	</g>
	<g>
		<circle class="st0" cx="198" cy="407.5" r="47.5"/>
	</g>
	<g>
		<circle class="st0" cx="300" cy="407.5" r="47.5"/>
	</g>
	<g>
		<circle class="st0" cx="402" cy="407.5" r="47.5"/>
	</g>
	<g>
		<circle class="st0" cx="503" cy="407.5" r="47.5"/>
	</g>
	<g>
		<circle class="st0" cx="604" cy="407.5" r="47.5"/>
	</g>
	<g>
		<circle class="st0" cx="96" cy="507.5" r="47.5"/>
	</g>
	<g>
		<circle class="st0" cx="198" cy="507.5" r="47.5"/>
	</g>
	<g>
		<circle class="st0" cx="300" cy="507.5" r="47.5"/>
	</g>
	<g>
		<circle class="st0" cx="402" cy="507.5" r="47.5"/>
	</g>
</g>
</svg>
