<?xml version="1.0" encoding="utf-8"?>
<!-- Generator: Adobe Illustrator 25.0.1, SVG Export Plug-In . SVG Version: 6.00 Build 0)  -->
<svg version="1.1" id="Layer_1" xmlns="http://www.w3.org/2000/svg" xmlns:xlink="http://www.w3.org/1999/xlink" x="0px" y="0px"
	 viewBox="0 0 1106.6 562.4" style="enable-background:new 0 0 1106.6 562.4;" xml:space="preserve">
<style type="text/css">
	.st0{fill:#0065FF;}
</style>
<g>
	<g>
		<g>
			<circle class="st0" cx="248.8" cy="200.4" r="19.2"/>
		</g>
		<g>
			<circle class="st0" cx="289.7" cy="200.4" r="19.2"/>
		</g>
		<g>
			<circle class="st0" cx="330.5" cy="200.4" r="19.2"/>
		</g>
		<g>
			<circle class="st0" cx="125.2" cy="240.8" r="19.2"/>
		</g>
		<g>
			<circle class="st0" cx="166.4" cy="240.8" r="19.2"/>
		</g>
		<g>
			<circle class="st0" cx="207.6" cy="240.8" r="19.2"/>
		</g>
		<g>
			<circle class="st0" cx="248.8" cy="240.8" r="19.2"/>
		</g>
		<g>
			<circle class="st0" cx="289.7" cy="240.8" r="19.2"/>
		</g>
		<g>
			<circle class="st0" cx="330.5" cy="240.8" r="19.2"/>
		</g>
		<g>
			<circle class="st0" cx="125.2" cy="281.2" r="19.2"/>
		</g>
		<g>
			<circle class="st0" cx="166.4" cy="281.2" r="19.2"/>
		</g>
		<g>
			<circle class="st0" cx="207.6" cy="281.2" r="19.2"/>
		</g>
		<g>
			<circle class="st0" cx="248.8" cy="281.2" r="19.2"/>
		</g>
		<g>
			<circle class="st0" cx="289.7" cy="281.2" r="19.2"/>
		</g>
		<g>
			<circle class="st0" cx="330.5" cy="281.2" r="19.2"/>
		</g>
		<g>
			<circle class="st0" cx="125.2" cy="321.6" r="19.2"/>
		</g>
		<g>
			<circle class="st0" cx="166.4" cy="321.6" r="19.2"/>
		</g>
		<g>
			<circle class="st0" cx="207.6" cy="321.6" r="19.2"/>
		</g>
		<g>
			<circle class="st0" cx="248.8" cy="321.6" r="19.2"/>
		</g>
		<g>
			<circle class="st0" cx="289.7" cy="321.6" r="19.2"/>
		</g>
		<g>
			<circle class="st0" cx="330.5" cy="321.6" r="19.2"/>
		</g>
		<g>
			<circle class="st0" cx="125.2" cy="362" r="19.2"/>
		</g>
		<g>
			<circle class="st0" cx="166.4" cy="362" r="19.2"/>
		</g>
		<g>
			<circle class="st0" cx="207.6" cy="362" r="19.2"/>
		</g>
		<g>
			<circle class="st0" cx="248.8" cy="362" r="19.2"/>
		</g>
	</g>
	<g>
		<path class="st0" d="M443.1,340.6c-13.8,0-24.8-3.2-33-9.5s-12.3-16-12.4-29.1H411c0.3,17.9,11,26.9,32.1,26.9
			c8.8,0,15.6-1.7,20.4-5.2c4.8-3.5,7.2-8.5,7.2-15.2c0-5.2-2-9.3-6-12.2c-4-2.9-10.9-5.5-20.6-7.6l-9.7-2.2
			c-10.6-2.3-18.7-5.9-24.5-10.7c-5.8-4.8-8.7-11.8-8.7-21c0-8.7,3.4-15.6,10.1-20.8c6.8-5.2,15.8-7.8,27.2-7.8
			c7.8,0,14.5,0.9,20.1,2.8c5.6,1.8,10,4.4,13.2,7.8c3.2,3.3,5.5,6.9,7,10.8c1.5,3.9,2.3,8.2,2.4,12.9h-13.2
			c-0.6-7.6-3.1-13.2-7.5-17s-11.7-5.6-22-5.6c-7.8,0-13.7,1.5-17.8,4.5c-4.1,3-6.1,7.1-6.1,12.4c0,5.4,1.8,9.6,5.3,12.5
			c3.5,2.9,10.3,5.5,20.3,7.8l9.7,2.2c12.3,2.7,21,6.5,26.3,11.5c5.2,5,7.8,11.6,7.8,19.7c0,9.8-3.6,17.6-10.8,23.4
			C466,337.7,456,340.6,443.1,340.6z"/>
		<path class="st0" d="M526.7,340c-11,0-19.8-3.8-26.6-11.3c-6.8-7.5-10.1-17.6-10.1-30.2c0-12.7,3.4-22.8,10.1-30.3
			c6.7-7.5,15.6-11.2,26.7-11.2c9.4,0,17.1,2.6,23.2,7.8c6,5.2,9.7,12.2,10.9,21H548c-1-5.7-3.5-10.1-7.5-13.1s-8.6-4.5-13.9-4.5
			c-7.1,0-12.8,2.6-17.2,7.8c-4.4,5.2-6.6,12.7-6.6,22.7s2.2,17.5,6.7,22.7s10.2,7.8,17.1,7.8c5.3,0,10-1.5,14-4.6
			c4-3.1,6.5-7.5,7.5-13.4h12.6c-1.3,9-5.1,16.1-11.3,21.3C543.3,337.4,535.7,340,526.7,340z"/>
		<path class="st0" d="M606.7,257c8.8,0,15.7,2.4,20.6,7.2c4.9,4.8,7.4,11.6,7.4,20.3v53.6h-12.3v-52.4c0-11.8-6-17.7-18.1-17.7
			c-5.7,0-10.8,2.2-15.2,6.5c-4.4,4.3-6.6,10.5-6.6,18.7v44.8h-12.3V228.8h12.3v41C588.4,261.3,596.5,257,606.7,257z"/>
		<path class="st0" d="M714.8,298.5v4.3h-60.2c0.6,8.7,3,15.2,7.3,19.5s10,6.5,17.1,6.5c11,0,18-4.9,21-14.8h12.8
			c-2,7.8-6,14-11.8,18.8c-5.8,4.8-13.2,7.1-22.4,7.1c-11,0-19.8-3.7-26.6-11.2c-6.8-7.5-10.2-17.6-10.2-30.3
			c0-12.5,3.4-22.5,10.1-30.1c6.7-7.6,15.5-11.4,26.5-11.4c11.4,0,20.3,3.9,26.7,11.8C711.6,276.8,714.8,286.6,714.8,298.5z
			 M678.4,268.3c-6.3,0-11.6,2-15.7,6c-4.1,4-6.7,9.8-7.8,17.5h46.7c-0.6-6.9-3-12.5-7-16.9C690.6,270.5,685.1,268.3,678.4,268.3z"
			/>
		<path class="st0" d="M784.9,228.8h12.3v109.4h-11.7v-12.3c-6.2,9.4-15.3,14.1-27.2,14.1c-11.2,0-20.1-3.8-26.8-11.3
			c-6.7-7.5-10.1-17.6-10.1-30.2c0-12.6,3.4-22.7,10.1-30.2c6.7-7.5,15.6-11.3,26.8-11.3c11.5,0,20.3,4.4,26.6,13.2V228.8z
			 M741.3,321.1c4.6,5.2,10.8,7.8,18.6,7.8c7.8,0,14-2.7,18.6-8.1c4.6-5.4,6.9-12.8,6.9-22.3s-2.3-17-6.9-22.3
			c-4.6-5.4-10.8-8.1-18.6-8.1c-7.7,0-13.9,2.8-18.5,8.4c-4.7,5.6-7,13.1-7,22.7C734.3,308.5,736.7,315.9,741.3,321.1z"/>
		<path class="st0" d="M860.3,258.9h12.3v79.3h-11.7v-11.8C855,335.4,846.7,340,836,340c-8.8,0-15.7-2.4-20.6-7.2
			c-4.9-4.8-7.4-11.6-7.4-20.3v-53.6h12.3v52.4c0,11.8,6,17.7,18.1,17.7c5.7,0,10.8-2.2,15.2-6.5c4.4-4.3,6.6-10.5,6.6-18.7
			L860.3,258.9L860.3,258.9z"/>
		<path class="st0" d="M886.7,338.1V228.8H899v109.4L886.7,338.1L886.7,338.1z"/>
		<path class="st0" d="M910.1,338.1V228.8h12.3v109.4L910.1,338.1L910.1,338.1z"/>
		<path class="st0" d="M987.2,258.9h13.4l-33.5,91.7c-2.5,6.8-5.7,11.5-9.8,14.1c-4.1,2.7-9.4,4-16,4c-2.2,0-4.7-0.2-7.4-0.5v-10.3
			h7.2c7.1,0,11.9-3.3,14.4-9.8l2.8-7.4l-29.8-81.9h13.5l11.2,33c2.7,7.7,6.5,19.1,11.4,34.2c3.3-10.5,7.1-21.9,11.4-34.4
			L987.2,258.9z"/>
	</g>
</g>
</svg>
